<?xml version="1.0" standalone="no"?>
<!DOCTYPE svg PUBLIC "-//W3C//DTD SVG 20010904//EN"
 "http://www.w3.org/TR/2001/REC-SVG-20010904/DTD/svg10.dtd">
<svg version="1.0" xmlns="http://www.w3.org/2000/svg"
 width="200.000000pt" height="200.000000pt" viewBox="0 0 200.000000 200.000000"
 preserveAspectRatio="xMidYMid meet">

<g transform="translate(0.000000,200.000000) scale(0.100000,-0.100000)"
fill="#000000" stroke="none">
<path d="M1150 1511 l0 -218 -77 -51 -77 -51 -75 52 -76 52 -3 213 c-2 174 -5
212 -16 212 -16 0 -101 -62 -128 -94 -41 -47 -45 -69 -52 -251 l-7 -180 66
-38 c88 -51 139 -98 167 -155 19 -40 23 -67 26 -179 l4 -133 99 0 99 0 0 124
c0 192 25 242 166 328 l85 52 -3 191 c-3 190 -3 192 -31 233 -30 46 -85 87
-135 102 l-32 9 0 -218z"/>
<path d="M646 1118 c-11 -42 -7 -58 14 -58 29 0 29 -60 -1 -67 -15 -4 -19 -11
-15 -27 3 -11 6 -25 6 -30 0 -4 11 -5 25 -2 21 5 27 2 37 -20 10 -22 10 -28
-5 -39 -21 -15 -21 -24 -1 -46 13 -14 21 -16 35 -8 34 18 81 -26 49 -46 -18
-11 -11 -21 23 -33 18 -7 36 -12 40 -12 4 0 7 38 7 86 0 75 -3 90 -25 122 -14
20 -28 54 -32 75 -6 40 -6 39 -114 105 l-37 22 -6 -22z"/>
<path d="M1276 1097 c-63 -39 -70 -46 -80 -88 -7 -25 -22 -59 -34 -76 -19 -26
-22 -44 -22 -117 0 -47 3 -86 7 -86 4 0 22 5 40 12 34 12 41 22 23 33 -33 20
15 64 50 45 16 -9 22 -6 36 15 16 24 16 27 -2 39 -16 12 -16 18 -6 40 9 21 17
25 36 20 18 -4 25 -1 30 18 9 33 8 35 -14 41 -15 4 -20 14 -20 36 0 24 4 31
20 31 21 0 26 27 12 62 -6 15 -16 11 -76 -25z"/>
<path d="M0 511 c0 -31 4 -41 20 -46 26 -8 26 -25 0 -25 -11 0 -20 -7 -20 -15
0 -20 44 -20 64 1 9 8 16 21 16 28 0 15 -32 46 -48 46 -6 0 -14 5 -18 11 -4 7
2 10 17 8 13 -2 30 0 38 5 18 12 -4 26 -41 26 -26 0 -28 -3 -28 -39z"/>
<path d="M490 480 c0 -56 3 -70 15 -70 8 0 15 7 15 15 0 8 4 15 9 15 5 0 11
-7 15 -15 3 -8 15 -15 27 -15 20 0 21 1 5 25 -12 19 -14 30 -6 44 5 11 10 22
10 25 0 12 -24 6 -42 -11 -17 -15 -18 -14 -18 20 0 26 -4 37 -15 37 -12 0 -15
-14 -15 -70z"/>
<path d="M600 480 c0 -63 2 -70 20 -70 16 0 20 7 20 35 0 19 5 35 10 35 6 0
10 -16 10 -35 0 -28 4 -35 20 -35 16 0 20 7 20 38 0 41 -14 62 -42 62 -11 0
-18 7 -18 20 0 13 -7 20 -20 20 -18 0 -20 -7 -20 -70z"/>
<path d="M950 504 c-30 -70 -35 -94 -17 -94 8 0 20 7 27 15 16 20 40 19 55 -1
6 -9 18 -15 27 -13 14 4 13 13 -9 72 -32 84 -54 90 -83 21z m50 -30 c0 -8 -4
-14 -10 -14 -5 0 -10 9 -10 21 0 11 5 17 10 14 6 -3 10 -13 10 -21z"/>
<path d="M1070 480 c0 -63 2 -70 20 -70 18 0 20 7 20 70 0 63 -2 70 -20 70
-18 0 -20 -7 -20 -70z"/>
<path d="M1182 538 c-21 -21 -13 -48 18 -66 37 -21 39 -36 5 -28 -14 4 -30 4
-36 0 -16 -10 11 -34 38 -34 65 0 90 62 33 83 -33 13 -42 32 -10 24 20 -5 45
15 33 26 -11 12 -68 8 -81 -5z"/>
<path d="M90 470 c0 -44 25 -66 65 -56 37 9 51 96 15 96 -15 0 -20 -7 -20 -29
0 -17 -4 -33 -10 -36 -6 -4 -10 8 -10 29 0 29 -4 36 -20 36 -17 0 -20 -7 -20
-40z"/>
<path d="M200 459 c0 -42 3 -49 20 -49 16 0 20 7 20 35 0 19 5 35 10 35 6 0
10 -16 10 -35 0 -28 4 -35 20 -35 16 0 20 7 20 35 0 19 5 35 10 35 6 0 10 -16
10 -35 0 -28 4 -35 20 -35 17 0 20 7 20 39 0 21 -6 43 -12 48 -7 6 -43 10 -80
11 l-68 0 0 -49z"/>
<path d="M370 488 c1 -64 34 -93 79 -68 30 15 31 90 1 90 -16 0 -20 -7 -20
-35 0 -19 -4 -35 -10 -35 -5 0 -10 16 -10 35 0 28 -4 35 -20 35 -14 0 -20 -7
-20 -22z"/>
<path d="M726 494 c-38 -37 -9 -81 54 -82 l40 -1 0 50 0 49 -39 0 c-23 0 -46
-7 -55 -16z m49 -44 c-5 -8 -11 -8 -17 -2 -6 6 -7 16 -3 22 5 8 11 8 17 2 6
-6 7 -16 3 -22z"/>
<path d="M1280 488 c1 -64 34 -93 79 -68 30 15 31 90 1 90 -16 0 -20 -7 -20
-36 0 -21 -4 -33 -10 -29 -5 3 -10 19 -10 36 0 22 -5 29 -20 29 -14 0 -20 -7
-20 -22z"/>
<path d="M1400 460 c0 -37 4 -50 14 -50 9 0 16 12 18 33 2 17 8 32 13 32 6 0
11 -15 13 -32 2 -20 9 -33 17 -33 8 0 15 13 17 33 2 17 8 32 13 32 6 0 11 -15
13 -32 5 -53 32 -43 32 11 0 51 -4 54 -92 55 l-58 2 0 -51z"/>
<path d="M1570 460 c0 -43 3 -50 20 -50 16 0 20 7 20 35 0 19 5 35 10 35 6 0
10 -16 10 -35 0 -28 4 -35 20 -35 16 0 20 7 20 35 0 19 5 35 10 35 6 0 10 -16
10 -35 0 -28 4 -35 20 -35 16 0 20 7 20 31 0 57 -12 66 -90 67 l-70 2 0 -50z"/>
<path d="M1758 499 c-25 -14 -23 -65 3 -79 25 -14 61 -9 67 9 3 10 -1 12 -17
8 -11 -3 -24 -1 -27 4 -3 5 9 9 25 9 24 0 31 4 31 20 0 33 -47 50 -82 29z m49
-25 c-3 -3 -12 -4 -19 -1 -8 3 -5 6 6 6 11 1 17 -2 13 -5z"/>
<path d="M1850 460 c0 -43 3 -50 20 -50 15 0 20 7 20 29 0 19 8 34 23 44 23
15 24 14 39 -28 10 -26 13 -47 7 -56 -13 -21 -11 -29 10 -29 21 0 31 26 31 85
0 26 -3 35 -9 27 -6 -10 -10 -9 -14 7 -4 18 -13 21 -66 21 l-61 0 0 -50z"/>
<path d="M840 465 c0 -10 11 -15 35 -15 24 0 35 5 35 15 0 10 -11 15 -35 15
-24 0 -35 -5 -35 -15z"/>
<path d="M458 323 c6 -2 18 -2 25 0 6 3 1 5 -13 5 -14 0 -19 -2 -12 -5z"/>
<path d="M648 318 c-3 -7 -2 -24 2 -38 l6 -25 6 27 c6 29 -6 60 -14 36z"/>
<path d="M818 318 c-3 -7 -2 -24 2 -38 l6 -25 6 27 c6 29 -6 60 -14 36z"/>
<path d="M1060 310 c0 -11 6 -20 14 -20 8 0 17 -8 19 -17 4 -17 5 -17 6 0 0
10 -6 20 -14 23 -20 8 -19 21 3 27 13 4 11 5 -5 6 -17 1 -23 -5 -23 -19z"/>
<path d="M523 303 c-16 -6 -17 -29 -1 -39 7 -4 8 -3 4 5 -4 6 -2 18 4 26 13
16 12 16 -7 8z"/>
<path d="M548 285 c-3 -14 -1 -25 3 -25 5 0 9 11 9 25 0 14 -2 25 -4 25 -2 0
-6 -11 -8 -25z"/>
<path d="M590 295 c0 -8 2 -15 4 -15 2 0 6 7 10 15 3 8 1 15 -4 15 -6 0 -10
-7 -10 -15z"/>
<path d="M697 303 c-10 -10 -8 -43 2 -43 5 0 7 9 4 20 -6 23 6 26 27 8 12 -11
12 -10 1 5 -14 18 -24 21 -34 10z"/>
<path d="M765 300 c-3 -6 1 -17 9 -26 9 -8 16 -11 16 -5 0 5 -5 13 -11 17 -8
4 -7 9 2 15 10 6 10 9 2 9 -6 0 -15 -5 -18 -10z"/>
<path d="M904 295 c-3 -8 -4 -20 -1 -27 3 -7 6 -2 6 10 1 14 6 22 14 19 6 -2
11 -12 10 -22 -1 -12 2 -14 10 -6 7 7 6 15 -3 26 -16 19 -29 19 -36 0z"/>
<path d="M968 298 c9 -9 15 -9 24 0 9 9 7 12 -12 12 -19 0 -21 -3 -12 -12z"/>
<path d="M1120 291 c0 -11 4 -22 9 -25 4 -3 6 6 3 19 -5 30 -12 33 -12 6z"/>
<path d="M1158 287 c-3 -19 -2 -25 4 -19 6 6 8 18 6 28 -3 14 -5 12 -10 -9z"/>
<path d="M1192 285 c0 -16 2 -22 5 -12 2 9 2 23 0 30 -3 6 -5 -1 -5 -18z"/>
<path d="M1217 298 c2 -5 13 -6 23 -3 14 4 20 0 23 -17 5 -21 5 -21 4 2 -2 20
-7 25 -29 25 -15 1 -24 -3 -21 -7z"/>
<path d="M1291 281 c0 -26 0 -26 9 -3 5 12 12 22 15 22 3 0 10 -10 15 -22 l9
-23 0 23 c1 27 18 29 24 2 4 -17 4 -16 3 2 -1 19 -7 23 -38 24 -35 1 -38 -2
-37 -25z"/>
<path d="M1400 295 c-11 -13 -11 -18 0 -28 7 -7 10 -7 7 -2 -3 6 -1 17 4 25 8
13 10 13 20 0 9 -12 10 -12 7 -1 -6 21 -23 24 -38 6z"/>
<path d="M1470 299 c0 -5 5 -7 10 -4 6 3 10 8 10 11 0 2 -4 4 -10 4 -5 0 -10
-5 -10 -11z"/>
<path d="M1522 283 c12 -33 12 -33 25 -10 15 27 17 50 2 24 -10 -18 -11 -18
-25 0 -12 16 -12 14 -2 -14z"/>
<path d="M450 291 c0 -5 9 -7 20 -4 11 3 20 7 20 9 0 2 -9 4 -20 4 -11 0 -20
-4 -20 -9z"/>
</g>
</svg>
